<?xml version="1.0" encoding="UTF-8" standalone="no"?>
<!DOCTYPE svg PUBLIC "-//W3C//DTD SVG 1.1//EN" "http://www.w3.org/Graphics/SVG/1.1/DTD/svg11.dtd">
<svg width="100%" height="100%" viewBox="0 0 1200 170" version="1.1" xmlns="http://www.w3.org/2000/svg" xmlns:xlink="http://www.w3.org/1999/xlink" xml:space="preserve" xmlns:serif="http://www.serif.com/" style="fill-rule:evenodd;clip-rule:evenodd;stroke-linejoin:round;stroke-miterlimit:2;">
    <g id="Wordmark" transform="matrix(1.8649,0,0,1.92113,15.8121,3.11194)">
        <path d="M129.33,9.01L126.74,9.16L124.22,9.51L119.78,10.62L117.39,11.5L115.04,12.59L111.15,14.91L107.58,17.78L105.75,19.62L104.1,21.55L101.54,25.29L99.5,29.39L98.61,31.83L97.92,34.27L97.16,38.74L97.03,43.32L97.23,45.9L97.63,48.41L98.81,52.79L100.61,57L101.88,59.26L103.29,61.38L106.23,64.89L108.55,67.08L110.62,68.71L113.29,70.46L115.62,71.7L118,72.74L121.02,73.75L123.59,74.37L126.74,74.84L129.98,75L191.5,75L192.46,74.81L193.27,74.27L193.73,73.63L193.99,72.7L193.97,65.11L193.73,64.37L193.27,63.73L192.63,63.27L191.89,63.03L129.59,63L127.94,62.9L125.9,62.6L123.9,62.1L122.35,61.56L119.38,60.12L116.68,58.23L114.58,56.25L112.54,53.67L111.11,51.16L109.9,48.1L109.26,45.29L109,42L109.26,38.71L110.03,35.51L111.11,32.84L112.77,29.99L114.58,27.75L117,25.51L119.74,23.68L122.35,22.44L123.9,21.9L125.9,21.4L127.53,21.15L129.59,21L191.89,20.97L192.63,20.73L193.27,20.27L193.73,19.63L193.97,18.89L193.99,11.3L193.73,10.37L193.27,9.73L192.46,9.19L191.5,9L129.33,9.01ZM202.12,73.27L202.48,73.97L202.88,74.4L203.54,74.81L204.11,74.97L211.5,75L212.27,74.88L213.12,74.4L213.73,73.63L213.97,72.89L214,11.5L213.81,10.54L213.4,9.88L212.63,9.27L211.89,9.03L203.92,9.07L203.37,9.27L202.73,9.73L202.27,10.37L202.03,11.11L202,72.5L202.12,73.27ZM222.12,73.27L222.48,73.97L223.03,74.52L223.73,74.88L224.5,75L231.89,74.97L232.97,74.52L233.73,73.63L234,72.5L234,48L291.29,47.98L293.9,47.7L296.5,47.05L298.99,46.06L301.31,44.73L302.85,43.59L304.27,42.31L305.56,40.89L306.7,39.35L307.69,37.71L308.51,35.99L309.15,34.18L309.62,32.33L309.9,30.44L310,28.52L309.91,26.61L309.63,24.72L309.17,22.86L308.53,21.06L307.71,19.33L306.73,17.69L305.56,16.11L304.03,14.46L302.29,12.97L300.67,11.86L298.69,10.8L296.87,10.07L294.66,9.45L292.44,9.1L290.52,9L224.5,9L223.92,9.07L223.19,9.37L222.73,9.73L222.27,10.37L222,11.5L222,72.5L222.12,73.27ZM290.79,21.01L292.11,21.17L293.37,21.57L294.54,22.18L295.59,22.99L296.48,23.97L297.18,25.1L297.68,26.32L297.95,27.62L297.99,28.94L297.79,30.25L297.37,31.51L296.74,32.67L295.8,33.8L294.79,34.65L293.64,35.31L292.39,35.76L290.47,36L234,36L234,21L290.79,21.01ZM315.07,73.08L315.37,73.81L315.88,74.4L316.54,74.81L317.3,74.99L324.89,74.97L325.97,74.52L326.73,73.63L327,72.5L327,48L393,48L393,72.5L393.19,73.46L393.6,74.12L394.03,74.52L394.73,74.88L395.3,74.99L402.7,74.99L403.27,74.88L403.97,74.52L404.73,73.63L405,72.5L405,11.5L404.88,10.73L404.52,10.03L403.63,9.27L402.7,9.01L395.3,9.01L394.54,9.19L394.03,9.48L393.48,10.03L393.19,10.54L393,11.5L393,36L327,36L327,11.5L326.81,10.54L326.52,10.03L325.97,9.48L325.27,9.12L324.7,9.01L317.3,9.01L316.54,9.19L316.03,9.48L315.27,10.37L315,11.5L315.07,73.08ZM495.27,20.88L495.81,20.63L496.4,20.12L496.73,19.63L496.97,18.89L496.99,11.3L496.73,10.37L496.27,9.73L495.46,9.19L494.7,9.01L414.5,9L413.73,9.12L412.88,9.6L412.27,10.37L412.01,11.3L412.07,19.08L412.37,19.81L412.88,20.4L413.54,20.81L414.3,20.99L494.5,21L495.27,20.88ZM495.27,47.88L495.81,47.63L496.4,47.12L496.73,46.63L496.97,45.89L496.99,38.3L496.73,37.37L496.27,36.73L495.46,36.19L494.7,36.01L414.5,36L413.73,36.12L412.88,36.6L412.27,37.37L412.01,38.3L412.07,46.08L412.37,46.81L412.88,47.4L413.54,47.81L414.3,47.99L494.5,48L495.27,47.88ZM519.25,9.19L518.29,9L507.15,9.03L506.23,9.37L505.52,10.03L505.11,10.91L505.07,11.89L505.4,12.8L505.91,13.4L539.28,42L505.77,70.74L505.23,71.55L505.05,72.7L505.31,73.64L505.92,74.4L506.77,74.88L507.54,75L518.29,75L518.88,74.93L519.6,74.63L548.5,49.9L577.4,74.63L578.12,74.93L578.71,75L589.46,75L590.6,74.73L591.36,74.12L591.84,73.27L591.96,72.5L591.77,71.55L591.23,70.74L557.72,42L591.23,13.26L591.84,12.27L591.95,11.3L591.69,10.36L591.08,9.6L590.23,9.12L589.46,9L578.71,9L578.12,9.07L577.4,9.37L548.5,34.1L519.92,9.6L519.25,9.19ZM495.27,74.88L495.81,74.63L496.4,74.12L496.73,73.63L496.97,72.89L496.99,65.3L496.73,64.37L496.27,63.73L495.46,63.19L494.7,63.01L414.5,63L413.73,63.12L412.88,63.6L412.27,64.37L412.01,65.3L412.07,73.08L412.37,73.81L412.88,74.4L413.54,74.81L414.3,74.99L494.5,75L495.27,74.88Z"/>
    </g>
    <g id="Ciphex-Logo" serif:id="Ciphex Logo" transform="matrix(0.255532,0,0,0.257281,-28.8992,-47.5481)">
        <path d="M513.256,324.539L447.413,211.689C444.727,207.086 439.8,204.253 434.47,204.248C429.141,204.244 424.209,207.067 421.515,211.666L212.476,568.485C209.191,574.094 209.891,581.181 214.212,586.038L423.325,821.099C426.176,824.303 430.261,826.134 434.55,826.129C438.839,826.123 442.92,824.283 445.763,821.072L513.303,744.786L581.192,821.099C584.042,824.303 588.128,826.134 592.417,826.129C596.705,826.123 600.787,824.283 603.63,821.072L811.743,586.011C816.037,581.161 816.732,574.103 813.468,568.508L605.28,211.689C602.594,207.086 597.667,204.253 592.337,204.248C587.007,204.244 582.075,207.067 579.381,211.666L513.256,324.539ZM495.854,354.243L434.431,248.968L434.431,248.968C434.431,248.968 243.872,574.243 243.872,574.243C243.872,574.243 434.505,788.531 434.505,788.531L493.221,722.212L372.078,586.038C367.758,581.181 367.057,574.094 370.343,568.485L495.854,354.243ZM530.605,354.274L655.602,568.508C658.866,574.103 658.17,581.161 653.876,586.011L533.332,722.164L592.372,788.531C592.372,788.531 782.086,574.251 782.086,574.251L592.297,248.968L592.297,248.968L530.605,354.274ZM401.739,574.243L513.249,699.59L624.219,574.251L513.203,383.978L401.739,574.243Z"/>
    </g>
</svg>
