<?xml version="1.0" encoding="UTF-8" standalone="no"?>
<!DOCTYPE svg PUBLIC "-//W3C//DTD SVG 1.1//EN" "http://www.w3.org/Graphics/SVG/1.1/DTD/svg11.dtd">
<svg width="100%" height="100%" viewBox="0 0 1024 1024" version="1.1" xmlns="http://www.w3.org/2000/svg" xmlns:xlink="http://www.w3.org/1999/xlink" xml:space="preserve" xmlns:serif="http://www.serif.com/" style="fill-rule:evenodd;clip-rule:evenodd;stroke-linejoin:round;stroke-miterlimit:2;">
    <g id="Ciphex" transform="matrix(1.32603,0,0,1.32603,-167.326,-167.326)">
        <path d="M513.256,324.539L447.413,211.689C444.727,207.086 439.8,204.253 434.47,204.248C429.141,204.244 424.209,207.067 421.515,211.666L212.476,568.485C209.191,574.094 209.891,581.181 214.212,586.038L423.325,821.099C426.176,824.303 430.261,826.134 434.55,826.129C438.839,826.123 442.92,824.283 445.763,821.072L513.303,744.786L581.192,821.099C584.042,824.303 588.128,826.134 592.417,826.129C596.705,826.123 600.787,824.283 603.63,821.072L811.743,586.011C816.037,581.161 816.732,574.103 813.468,568.508L605.28,211.689C602.594,207.086 597.667,204.253 592.337,204.248C587.007,204.244 582.075,207.067 579.381,211.666L513.256,324.539ZM495.854,354.243L434.431,248.968L434.431,248.968C434.431,248.968 243.872,574.243 243.872,574.243C243.872,574.243 434.505,788.531 434.505,788.531L493.221,722.212L372.078,586.038C367.758,581.181 367.057,574.094 370.343,568.485L495.854,354.243ZM530.605,354.274L655.602,568.508C658.866,574.103 658.17,581.161 653.876,586.011L533.332,722.164L592.372,788.531C592.372,788.531 782.086,574.251 782.086,574.251L592.297,248.968L592.297,248.968L530.605,354.274ZM401.739,574.243L513.249,699.59L624.219,574.251L513.203,383.978L401.739,574.243Z"/>
    </g>
</svg>
