<svg xmlns="http://www.w3.org/2000/svg" xmlns:xlink="http://www.w3.org/1999/xlink" width="200" zoomAndPan="magnify" viewBox="0 0 150 149.999998" height="200" preserveAspectRatio="xMidYMid meet" version="1.2"><defs><clipPath id="d3d41e392d"><path d="M 2.035156 2.035156 L 147.964844 2.035156 L 147.964844 147.964844 L 2.035156 147.964844 Z M 2.035156 2.035156 "/></clipPath><clipPath id="f763ffed5c"><path d="M 75 2.035156 C 34.703125 2.035156 2.035156 34.703125 2.035156 75 C 2.035156 115.296875 34.703125 147.964844 75 147.964844 C 115.296875 147.964844 147.964844 115.296875 147.964844 75 C 147.964844 34.703125 115.296875 2.035156 75 2.035156 Z M 75 2.035156 "/></clipPath></defs><g id="4815f15faa"><g clip-rule="nonzero" clip-path="url(#d3d41e392d)"><g clip-rule="nonzero" clip-path="url(#f763ffed5c)"><path style=" stroke:none;fill-rule:nonzero;fill:#040707;fill-opacity:1;" d="M 2.035156 2.035156 L 147.964844 2.035156 L 147.964844 147.964844 L 2.035156 147.964844 Z M 2.035156 2.035156 "/></g></g><path style="fill:none;stroke-width:36;stroke-linecap:round;stroke-linejoin:miter;stroke:#ffffff;stroke-opacity:1;stroke-miterlimit:4;" d="M 17.98705 17.999432 L 483.623479 17.991749 " transform="matrix(0.0816614,-0.143091,0.143091,0.0816614,17.10013,88.060953)"/><path style="fill:none;stroke-width:36;stroke-linecap:round;stroke-linejoin:miter;stroke:#ffffff;stroke-opacity:1;stroke-miterlimit:4;" d="M 18.007184 17.997471 L 486.016303 17.989026 " transform="matrix(-0.0834043,-0.142076,0.142076,-0.0834043,98.34721,91.032112)"/><path style="fill:none;stroke-width:36;stroke-linecap:round;stroke-linejoin:miter;stroke:#ffffff;stroke-opacity:1;stroke-miterlimit:4;" d="M 17.997519 17.998463 L 360.908014 17.994598 " transform="matrix(-0.109846,-0.12279,0.12279,-0.109846,59.087249,133.69479)"/><path style="fill:none;stroke-width:36;stroke-linecap:round;stroke-linejoin:miter;stroke:#ffffff;stroke-opacity:1;stroke-miterlimit:4;" d="M 18.014022 18.000263 L 358.198221 17.986281 " transform="matrix(0.110917,-0.121713,0.121713,0.110917,56.674364,129.719438)"/><path style="fill:none;stroke-width:36;stroke-linecap:round;stroke-linejoin:miter;stroke:#ffffff;stroke-opacity:1;stroke-miterlimit:4;" d="M 17.989483 18.003694 L 483.625911 17.996012 " transform="matrix(0.0816614,-0.143091,0.143091,0.0816614,46.536822,88.060953)"/><path style="fill:none;stroke-width:36;stroke-linecap:round;stroke-linejoin:miter;stroke:#ffffff;stroke-opacity:1;stroke-miterlimit:4;" d="M 18.004723 18.001664 L 486.013842 17.993219 " transform="matrix(-0.0834043,-0.142076,0.142076,-0.0834043,127.783909,91.032112)"/><path style="fill:none;stroke-width:36;stroke-linecap:round;stroke-linejoin:miter;stroke:#ffffff;stroke-opacity:1;stroke-miterlimit:4;" d="M 17.994268 18.002097 L 360.904763 17.998232 " transform="matrix(-0.109846,-0.12279,0.12279,-0.109846,88.523946,133.69479)"/><path style="fill:none;stroke-width:36;stroke-linecap:round;stroke-linejoin:miter;stroke:#ffffff;stroke-opacity:1;stroke-miterlimit:4;" d="M 18.001349 17.986357 L 358.201527 17.989908 " transform="matrix(0.110917,-0.121713,0.121713,0.110917,86.111055,129.719438)"/></g></svg>